<svg width="16" height="13" viewBox="0 0 16 13" fill="none" xmlns="http://www.w3.org/2000/svg">
<path d="M14.86 0.789851L14.8467 0.776517C14.5933 0.656517 14.3067 0.589851 14.0067 0.589851H2C1.7346 0.589145 1.47172 0.641269 1.22667 0.743184L1.20667 0.723184L1.14667 0.789851C0.805077 0.950996 0.516099 1.20557 0.313172 1.52412C0.110246 1.84267 0.00166696 2.21216 0 2.58985L0 10.5899C0 11.6965 0.893333 12.5899 2 12.5899H14C15.1067 12.5899 16 11.6965 16 10.5899V2.58985C16 1.79652 15.5333 1.11652 14.86 0.789851ZM13.7 1.92318L8.58667 6.90318C8.31333 7.16985 7.84667 7.16985 7.56667 6.90318L2.46667 1.92318H13.7ZM14 11.2565H2C1.63333 11.2565 1.33333 10.9565 1.33333 10.5899V2.70985L6.61333 7.85652C7.01333 8.24318 7.53333 8.43652 8.05333 8.43652C8.57333 8.43652 9.09333 8.24318 9.49333 7.85652L14.6667 2.81652V10.5899C14.6667 10.9565 14.3667 11.2565 14 11.2565Z" fill="white"/>
</svg>
