<svg width="13" height="16" viewBox="0 0 13 16" fill="none" xmlns="http://www.w3.org/2000/svg">
<path fill-rule="evenodd" clip-rule="evenodd" d="M0.725543 6.00178C0.749886 4.41494 1.39734 2.90133 2.52812 1.78777C3.65889 0.674212 5.18225 0.0500488 6.76928 0.0500488C8.3563 0.0500488 9.87967 0.674212 11.0104 1.78777C12.1412 2.90133 12.7887 4.41494 12.813 6.00178C12.813 10.0018 6.76857 16.0018 6.76857 16.0018C6.76857 16.0018 0.724121 10.0018 0.724121 6.00178M4.24963 6.00178C4.24594 6.50052 4.39042 6.98913 4.66478 7.40565C4.93913 7.82218 5.33099 8.14785 5.79068 8.34137C6.25036 8.5349 6.75716 8.58756 7.24681 8.49269C7.73646 8.39781 8.18691 8.15967 8.54104 7.80846C8.89518 7.45725 9.13704 7.00879 9.23597 6.51994C9.3349 6.03109 9.28644 5.52387 9.09673 5.0626C8.90702 4.60133 8.58461 4.20679 8.17037 3.92899C7.75614 3.65119 7.26875 3.50266 6.76999 3.50222C6.44047 3.50089 6.11392 3.56449 5.80899 3.6894C5.50406 3.81431 5.22673 3.99808 4.99284 4.2302C4.75895 4.46232 4.57309 4.73825 4.44587 5.04222C4.31865 5.3462 4.25257 5.67226 4.25141 6.00178H4.24963Z" fill="white"/>
</svg>
