<svg width="15" height="16" viewBox="0 0 15 16" fill="none" xmlns="http://www.w3.org/2000/svg">
<path fill-rule="evenodd" clip-rule="evenodd" d="M12.9446 11.6157L14.0569 13.2476C14.6819 14.1198 14.0394 14.6818 13.3042 15.0497C12.327 15.5385 11.3093 16.1371 9.74091 15.9702C7.30703 15.7112 5.83421 14.1345 4.26187 12.4509C2.84126 10.9298 -0.978117 6.84063 0.246873 2.57194C0.445572 1.88982 0.754561 1.24482 1.16159 0.662499C1.63237 -0.0170749 2.32023 -0.352227 3.17299 0.539074L4.86974 2.09287C5.89763 3.06418 5.93373 3.51105 5.52199 4.28917C5.39759 4.52383 5.36734 4.51212 5.20147 4.71848C5.05365 4.90191 4.64435 5.20145 4.43945 5.31951L3.98624 5.68149C3.96477 5.69369 4.21943 5.44928 4.20138 5.46587C3.47058 6.13959 3.67011 7.02796 4.29749 7.81681L6.77137 10.9278C7.09043 11.329 7.54959 11.5945 8.05647 11.6708C8.56334 11.7471 9.0803 11.6286 9.50333 11.3391L9.6892 11.2122C10.9922 9.82822 11.8748 10.096 12.9446 11.6157Z" fill="white"/>
</svg>
