<svg width="16" height="13" viewBox="0 0 16 13" fill="none" xmlns="http://www.w3.org/2000/svg">
<path fill-rule="evenodd" clip-rule="evenodd" d="M14.4343 0.166146L0.98825 5.25115C0.2525 5.46332 0.2765 6.18865 0.82025 6.36325L4.18925 7.41325L5.4785 11.3606C5.63525 11.7927 5.7635 11.9555 6.0305 11.9591C6.31175 11.963 6.41975 11.8604 6.7115 11.6024C7.0535 11.2817 7.57475 10.7768 8.39825 9.97742L11.9023 12.5636C12.5473 12.9188 13.013 12.7348 13.1735 11.9654L15.3702 1.11047C15.6058 0.167796 15.0515 -0.113604 14.4343 0.166146ZM4.718 7.1722L12.3778 2.3722C12.755 2.11937 12.8735 2.40145 12.7032 2.5963L6.34625 8.30762L6.02 11.1582L4.718 7.1722Z" fill="#222222"/>
</svg>
