<svg width="16" height="16" viewBox="0 0 16 16" fill="none" xmlns="http://www.w3.org/2000/svg">
<path fill-rule="evenodd" clip-rule="evenodd" d="M8.05998 0.937073C6.7673 0.941233 5.49883 1.28799 4.38381 1.94202C3.26878 2.59604 2.34705 3.53396 1.71254 4.6602C1.07803 5.78645 0.753407 7.06077 0.771754 8.35332C0.790101 9.64588 1.15076 10.9105 1.81698 12.0182L0.500732 15.939L4.53648 14.6437C5.51226 15.1785 6.59735 15.4833 7.7089 15.5348C8.82045 15.5862 9.92905 15.383 10.9501 14.9405C11.9711 14.4981 12.8775 13.8282 13.6 12.982C14.3226 12.1358 14.8423 11.1357 15.1193 10.058C15.3964 8.98028 15.4235 7.85353 15.1985 6.76376C14.9736 5.67399 14.5027 4.65002 13.8216 3.77006C13.1405 2.8901 12.2674 2.17741 11.2688 1.68642C10.2703 1.19543 9.17272 0.939124 8.05998 0.937073ZM8.05998 2.16107C6.94024 2.16387 5.843 2.47566 4.88911 3.0621C3.93521 3.64854 3.16168 4.48688 2.65372 5.48478C2.14576 6.48268 1.92308 7.60141 2.0102 8.71776C2.09732 9.83411 2.49086 10.9048 3.14748 11.8118L2.38923 14.0708L4.72173 13.3224C5.71096 13.9795 6.8724 14.3295 8.05998 14.3282C9.66975 14.3226 11.2117 13.6792 12.3479 12.5389C13.4842 11.3986 14.1222 9.85444 14.1222 8.24466C14.1222 6.63488 13.4842 5.09073 12.3479 3.95045C11.2117 2.81017 9.66975 2.16672 8.05998 2.16107ZM11.8257 10.1364C11.7822 10.0569 11.66 10.0054 11.4777 9.90527C11.2955 9.80515 10.397 9.3193 10.229 9.25067C10.061 9.18205 9.93798 9.1465 9.80673 9.3286C9.67548 9.5107 9.30348 9.91697 9.19023 10.0375C9.07698 10.158 8.96823 10.1692 8.78523 10.0686C8.60223 9.96805 8.01048 9.7489 7.32348 9.08695C6.93077 8.69443 6.59818 8.24607 6.33648 7.75637C6.23523 7.5655 6.33573 7.46822 6.43248 7.3789C6.51948 7.29827 6.62673 7.16785 6.72423 7.06247C6.80431 6.9712 6.87075 6.86881 6.92148 6.7585C6.94813 6.70795 6.96181 6.65157 6.96129 6.59443C6.96076 6.53729 6.94606 6.48117 6.91848 6.43112C6.87498 6.33632 6.53748 5.40422 6.39648 5.02502C6.25548 4.64582 6.09798 4.70252 5.98923 4.69795C5.88048 4.69337 5.75748 4.67372 5.63373 4.66915C5.53922 4.66807 5.44552 4.68658 5.35852 4.72351C5.27152 4.76044 5.19311 4.81499 5.12823 4.88372C4.95123 5.06372 4.45323 5.49715 4.41948 6.41522C4.38573 7.3333 5.01873 8.24485 5.10648 8.37272C5.19423 8.5006 6.31623 10.4903 8.17998 11.3085C10.0437 12.1267 10.0535 11.8771 10.3955 11.8587C10.7375 11.8403 11.513 11.4486 11.6847 11.0192C11.8565 10.5897 11.8692 10.216 11.8257 10.1364Z" fill="#333333"/>
</svg>
