<svg width="16" height="9" viewBox="0 0 16 9" fill="none" xmlns="http://www.w3.org/2000/svg">
<path fill-rule="evenodd" clip-rule="evenodd" d="M7.7646 8.67811H8.66122C8.66122 8.67811 8.93197 8.64811 9.07042 8.49886C9.19792 8.36236 9.19365 8.10586 9.19365 8.10586C9.19365 8.10586 9.17617 6.90361 9.7344 6.72586C10.285 6.55186 10.9918 7.88836 11.7409 8.40211C12.3076 8.79061 12.738 8.70586 12.738 8.70586L14.7414 8.67811C14.7414 8.67811 15.7894 8.61286 15.2924 7.79011C15.2516 7.72261 15.0029 7.18111 13.8028 6.06736C12.5465 4.90261 12.7153 5.09086 14.228 3.07561C15.1495 1.84786 15.518 1.09936 15.4028 0.778363C15.2932 0.472363 14.6153 0.553363 14.6153 0.553363L12.3597 0.566863C12.2596 0.555137 12.1584 0.573136 12.0685 0.618613C11.9829 0.681122 11.9145 0.764178 11.8695 0.860113C11.6358 1.466 11.3573 2.05363 11.0363 2.61811C10.032 4.32211 9.63022 4.41211 9.46612 4.30636C9.08415 4.05961 9.17962 3.31561 9.17962 2.78686C9.17962 1.13461 9.43035 0.446113 8.69137 0.268363C8.44627 0.209113 8.26567 0.170112 7.63852 0.163362C6.8337 0.155112 6.15255 0.165613 5.7669 0.354613C5.51032 0.480613 5.31225 0.760362 5.43292 0.776112C5.58202 0.796362 5.91952 0.867613 6.09855 1.11061C6.32985 1.42486 6.32167 2.13061 6.32167 2.13061C6.32167 2.13061 6.4545 4.07461 6.01147 4.31611C5.7075 4.48186 5.29042 4.14361 4.39485 2.59786C4.09087 2.05976 3.82194 1.5026 3.58972 0.929863C3.54838 0.832648 3.48468 0.746564 3.4038 0.678613C3.29887 0.609313 3.18105 0.561868 3.05737 0.539113L0.913797 0.553363C0.913797 0.553363 0.592122 0.562363 0.473997 0.701863C0.368997 0.826363 0.465597 1.08361 0.465597 1.08361C0.465597 1.08361 2.1435 5.00686 4.0437 6.98386C5.78632 8.79661 7.7646 8.67811 7.7646 8.67811Z" fill="#222222"/>
</svg>
